<svg id="Layer_1" enable-background="new 0 0 105.238 263.079" height="512" viewBox="0 0 105.238 263.079" width="512" xmlns="http://www.w3.org/2000/svg"><g><path d="m28.186 100.901v16.585c2.189-.372 4.605-.878 7.08-1.488l-4.803-16.222-4.936-3.883-1.248.369-3.642-12.3c-5.174 5.295-9.069 13.258-11.645 23.8 2.746.549 9.442 2.177 15.064 5.814 1.189-5.482 2.638-9.612 4.13-12.675z"/><path d="m88.674 164.061c-.258 4.411 3.108 8.196 7.519 8.454.159.009.317.014.475.014 4.205 0 7.73-3.281 7.979-7.533 1.323-22.608.422-41.006-2.675-55.087-2.661.537-9.692 2.238-15.122 6.02 2.049 10.837 3.1 26.322 1.824 48.132z"/><path d="m43.746 92.902-1.115 3.271 5.161 17.433c3.58.705 6.558 3.28 7.718 6.857 1.235 3.809.091 7.819-2.595 10.444l3.877 13.095-12.168 3.603-3.567-12.048c-1.972.503-4.176 1.023-6.456 1.482-2.317.466-4.435.807-6.415 1.051v10.319l-2.634 31.293c-2.402 2.526-4 5.847-4.314 9.582l-.395 4.687c-.937.096-1.71.848-1.792 1.819s.555 1.842 1.463 2.093l-.184 2.192c-.937.096-1.71.848-1.792 1.819s.555 1.842 1.463 2.093l-3.25 38.609c-.194 2.308 1.04 4.127 3.043 5.527l-.131 1.557c-.573 6.806 4.481 12.784 11.283 13.357 6.804.573 12.786-4.477 13.359-11.283l.13-1.549c2.216-1.046 3.743-2.635 3.938-4.948l3.25-38.609c.937-.096 1.71-.848 1.792-1.819s-.555-1.842-1.463-2.093l.184-2.192c.937-.096 1.71-.848 1.792-1.819s-.555-1.842-1.463-2.093l.395-4.687c.315-3.744-.71-7.293-2.664-10.188l1.776-21.106h6.521l1.776 21.106c-1.955 2.895-2.979 6.445-2.664 10.188l.395 4.687c-.908.251-1.545 1.122-1.463 2.093s.855 1.723 1.792 1.819l.184 2.192c-.908.251-1.545 1.122-1.463 2.093s.855 1.723 1.792 1.819l3.25 38.609c.195 2.313 1.722 3.902 3.938 4.948l.13 1.549c.573 6.806 6.554 11.855 13.359 11.283 6.802-.573 11.856-6.551 11.283-13.357l-.131-1.557c2.002-1.4 3.237-3.219 3.043-5.527l-3.25-38.609c.908-.251 1.545-1.122 1.463-2.093s-.855-1.723-1.792-1.819l-.184-2.192c.908-.251 1.545-1.122 1.463-2.093s-.855-1.723-1.792-1.819l-.395-4.687c-.314-3.735-1.912-7.056-4.314-9.582l-2.634-31.3v-47.505c1.49 3.099 2.925 7.246 4.1 12.699 5.632-3.652 12.353-5.286 15.099-5.834-2.716-11.141-6.898-19.392-12.536-24.689-5.594-5.257-11.059-6.173-13.883-6.244-.169-.011-.338-.026-.51-.026h-4.987l-2.165 16.922-9.75-11.75 4.667-5.172h-14.166l4.667 5.172zm-21.043 105.201 27.237 2.292-.178 2.118-27.237-2.292zm23.477 46.968c-.63 7.49-27.867 5.198-27.237-2.292l3.246-38.572 27.237 2.292zm4.487-53.311-.391 4.65-27.237-2.292.391-4.65c.63-7.49 7.275-13.103 14.765-12.472 7.49.629 13.103 7.274 12.472 14.764zm9.857 8.636 27.237-2.292.178 2.117-27.237 2.292zm3.76 44.675-3.246-38.572 27.237-2.292 3.246 38.572c.631 7.49-26.606 9.782-27.237 2.292zm22.75-55.604.391 4.65-27.237 2.292-.391-4.65c-.63-7.49 4.982-14.134 12.472-14.765 7.491-.629 14.135 4.983 14.765 12.473z"/><path d="m56.232 58.222v7.829c5.679-.323 10.642-3.35 13.602-7.829z"/><path d="m54.232 58.222h-13.602c2.96 4.479 7.923 7.505 13.602 7.829z"/><path d="m37.958 63.016c4.127 4.941 10.333 8.086 17.274 8.086 12.428 0 22.499-10.072 22.499-22.5h1.377c0-16.889-7.709-30.63-23.875-30.63-14.031 0-21.688 10.353-23.468 24.128zm-4.77-17.044h44.087c0 1.795-9.869 3.25-22.043 3.25-12.175 0-22.044-1.455-22.044-3.25zm22.045 22.13c-10.752 0-19.5-8.747-19.5-19.5h2c0 2.734.648 5.313 1.771 7.62h31.456c1.122-2.307 1.77-4.886 1.77-7.62h2c0 10.753-8.746 19.5-19.497 19.5z"/><path d="m25.9 93.28 17.022-5.04-25.9-87.476s-2.095-1.865-9.188.235c-7.092 2.099-7.834 4.805-7.834 4.805z"/><path d="m41.51 92.022-12.367 3.662 3.404 2.678 5.044 17.036c1.717-.462 3.429-.962 5.07-1.494.839-.272 1.703-.427 2.575-.476l-5.124-17.306z"/><path d="m43.379 134.944 2.865 9.677 7.565-2.24-2.937-9.921c-.598.342-1.239.629-1.919.85-.158.051-2.355.759-5.574 1.634z"/><path d="m34.168 134.88c7.313-1.472 13.832-3.574 14.106-3.663 4.203-1.362 6.506-5.874 5.144-10.077s-5.874-6.506-10.077-5.144c-6.493 2.105-13.769 3.689-18.642 4.195-.666.069-1.289.119-1.856.146.228-1.559.477-3.032.742-4.428-5.433-3.773-12.433-5.466-15.09-6-.872 3.956-1.579 8.234-2.1 12.865-.389 3.461.627 6.641 2.843 9.069.188.221.388.435.604.639 0 0 .001.001.002.001s.001.001.001.001c.217.205.444.39.677.566 2.687 2.179 6.393 3.266 11.48 3.266.71 0 1.453-.026 2.217-.068 2.903-.159 6.199-.613 9.949-1.368z"/></g></svg>