<svg id="Layer_1" enable-background="new 0 0 135.94 282.947" height="512" viewBox="0 0 135.94 282.947" width="512" xmlns="http://www.w3.org/2000/svg"><g><path d="m22.92 25.259c-.038-.61-.083-1.224-.107-1.826v-20.933c0-1.375-1.125-2.5-2.5-2.5s-2.5 1.125-2.5 2.5v14.79c-4.701-.728-11.063.299-11.063 3.085 0 4.511.361 9.248 1.043 14.102z"/><path d="m51.694 270.583c0 6.83 5.537 12.363 12.363 12.363 6.828 0 12.365-5.533 12.365-12.363v-65.393c-9.268-.142-18.477-1.093-24.728-1.894z"/><path d="m81.057 270.583c0 6.83 5.537 12.363 12.363 12.363 6.828 0 12.365-5.533 12.365-12.363v-67.288c-6.251.801-15.461 1.752-24.729 1.894v65.394z"/><path d="m116.074 179.562c.047 1.558.088 3.139.117 4.771.078 4.369 3.644 7.857 7.996 7.857.048 0 .097 0 .146-.001 4.417-.079 7.935-3.724 7.855-8.142-.039-2.177-.098-4.303-.169-6.401-5.053 1.855-11.403 2.076-15.945 1.916z"/><path d="m93.794 105.286c0 7.22-4.658 14.741-8.792 19.998l-2.236-16.472c-1.295.486-2.658.74-4.021.74h-.005-.002c-1.365.001-2.729-.253-4.027-.739l-2.235 16.47c-4.134-5.256-8.791-12.777-8.791-19.996 0-3.473.495-6.509 1.362-9.115-32.849-10.203-40.297-68.047-40.297-68.047l-24.75 15.083c21 59.667 36 62.917 38 68.667s4.667 26.5 6 45.5.44 41.435.44 41.435 17.632 3 34.299 3 34.299-3 34.299-3l-1.75-23s20.319 2.333 24.652-5c-2-46.333-18.916-66.416-29.25-72.083l.034-.062c-3.566-1.863-6.662-2.217-8.55-2.197-.039-.001-.077-.006-.117-.006h-5.522c.806 2.539 1.259 5.482 1.259 8.824z"/><path d="m84.44 104.134-1.9-7.5h-3.8-3.8l-1.9 7.5.292.46c1.565 1.303 3.48 1.956 5.408 1.958 1.928-.002 3.846-.656 5.412-1.962z"/><path d="m87.895 88.816c7.862-3.508 13.344-11.387 13.344-20.552 0-2.837-.53-5.549-1.488-8.048h-42.024c-.958 2.5-1.488 5.211-1.488 8.048 0 9.166 5.484 17.045 13.346 20.553 2.797 1.248 5.893 1.947 9.154 1.947 3.262 0 6.358-.699 9.156-1.948z"/><path d="m114.989 58.216v-3.375h-15.09l-1.174-14.084s-6.998-5.332-20.111-5.332c-13.111 0-20.111 5.332-20.111 5.332l-1.173 14.084h-15.091v3.375z"/></g></svg>