<svg id="Layer_1" enable-background="new 0 0 272.275 277.04" height="512" viewBox="0 0 272.275 277.04" width="512" xmlns="http://www.w3.org/2000/svg"><g><path d="m183.385 64.048c-.23.779-.177 1.746.134 2.861 5.225-2.21 10.807-4.476 16.696-6.746-1.132-1.677-2.492-3.239-4.114-4.61-9.489-8.023-23.686-6.834-31.709 2.655-4.732 5.597-6.234 12.825-4.745 19.464 6.466-3.105 14.182-6.644 22.914-10.356-.123-1.433.137-2.557.824-3.268z"/><path d="m192.587 85.25c-7.057 2.97-13.472 5.84-19.094 8.465 7.782 2.997 16.771 1.461 23.131-4.287-1.348-1.264-2.704-2.669-4.037-4.178z"/><path d="m196.903 83.456c5.824 4.682 11.657 7.715 15.599 8.322 1.927.297 3.402.017 4.203-.929 1.868-2.209-.461-7.434-5.382-13.078-5.032 1.899-9.843 3.805-14.42 5.685z"/><path d="m127.337 208.455 4.348 57.262c.488 6.431 5.857 11.324 12.202 11.323.311 0 .625-.012.94-.036 6.746-.512 11.8-6.396 11.288-13.142l-4.549-59.92c-.133-1.752-.641-3.455-1.49-4.992l-21.88-39.641c-3.531 10.618-8.189 20.069-12.659 27.765z"/><path d="m98.69 206.128c.793-.909 18.489-21.457 27.396-50.038.024-.06.048-.115.072-.176 5.213-16.543 18.137-32.656 26.561-44.165 2.665-3.044 4.529-6.787 5.42-10.55-6.604 3.369-10.346 5.491-10.464 5.559-1.541.881-3.288 1.346-5.054 1.346-3.655 0-7.052-1.97-8.864-5.141-2.79-4.884-1.087-11.126 3.795-13.917.502-.286 4.492-2.548 11.277-6.018-7.153-2.4-16.903-1.078-25.225 7.509-14.727 15.376-21.627 26.643-28.719 47.853-2.376 9.438-.071 15.452 3.939 19.574-5.032 12.082-11.493 21.816-15.433 27.182l-50.9-2.236c-6.896-.303-12.733 5.042-13.036 11.939-.261 5.959 3.692 11.126 9.22 12.617.87.234 1.781.378 2.72.42l57.323 2.518c3.801.168 7.472-1.406 9.972-4.276z"/><path d="m166.311 94.694c16.433-7.938 41.876-19.14 71.558-28.416 4.218-1.318 6.568-5.805 5.25-10.022-1.317-4.216-5.806-6.567-10.021-5.25-31.886 9.964-58.702 21.893-75.531 30.113 1.388 3.407 4.684 10.619 8.744 13.575z"/><path d="m138.644 90.957c-3.836 2.192-5.168 7.079-2.977 10.915 1.478 2.584 4.176 4.032 6.954 4.032 1.345 0 2.71-.34 3.962-1.056.156-.089 6.57-3.728 17.55-9.097-4.066-3.566-7.159-10.252-8.55-13.657-10.231 5.055-16.313 8.506-16.939 8.863z"/><circle cx="263.15" cy="54.976" r="9.125"/><path d="m0 152.756 2.968.44c.133-.9 14.123-90.472 80.919-130.67 40.811-24.56 92.768-25.953 154.431-4.136l1-2.828c-62.547-22.13-115.363-20.651-156.978 4.394-35.561 21.4-56.055 56.376-66.986 81.949-11.825 27.663-15.32 50.622-15.354 50.851z"/></g></svg>