<svg id="Layer_1" enable-background="new 0 0 119.575 273.888" height="512" viewBox="0 0 119.575 273.888" width="512" xmlns="http://www.w3.org/2000/svg"><g><path d="m19.714 9.282c.706-4.354-2.248-8.46-6.603-9.174-4.361-.72-8.474 2.24-9.188 6.601-.087.53-.629 4.035-.891 9.849l16.078-.252c.211-4.366.581-6.874.604-7.024z"/><path d="m35.329 261.524c0 6.83 5.537 12.363 12.363 12.363 6.828 0 12.365-5.533 12.365-12.363v-65.394c-9.268-.142-18.477-1.093-24.729-1.894v67.288z"/><path d="m64.692 261.524c0 6.83 5.537 12.363 12.363 12.363 6.828 0 12.365-5.533 12.365-12.363v-67.288c-6.251.801-15.461 1.752-24.729 1.894v65.394z"/><path d="m99.708 170.464c.047 1.57.089 3.164.118 4.809.078 4.369 3.644 7.857 7.996 7.857.048 0 .097 0 .146-.001 4.417-.079 7.935-3.725 7.855-8.142-.039-2.172-.098-4.294-.168-6.387-3.473 1.261-8.024 1.902-13.647 1.902-.817.001-1.575-.016-2.3-.038z"/><path d="m90.325 89.667-13.689-.556c.507 2.129.793 4.496.793 7.116 0 7.22-4.658 14.741-8.792 19.998l-2.236-16.472c-1.295.486-2.658.74-4.021.74h-.006-.002c-1.365.001-2.729-.253-4.027-.739l-2.235 16.47c-4.134-5.256-8.791-12.777-8.791-19.996 0-3.48.497-6.522 1.367-9.131-31.808-10.209-27.202-67.428-27.202-67.428l-21.333.334c-2 39 16.5 78.583 18.5 84.333s7.651 24.98 8.984 43.98.44 41.435.44 41.435 17.632 3 34.299 3 34.299-3 34.299-3l-1.75-23s20.319 2.333 24.652-5c-2-46.334-18.917-66.417-29.25-72.084z"/><path d="m62.375 87.575h-3.801l-1.9 7.5.292.46c1.565 1.303 3.48 1.956 5.408 1.958 1.928-.002 3.846-.656 5.412-1.962l.289-.456-1.9-7.5z"/><path d="m39.874 59.205c0 9.166 5.484 17.045 13.346 20.553 2.797 1.248 5.893 1.947 9.154 1.947 3.262 0 6.358-.7 9.156-1.948 7.862-3.508 13.344-11.387 13.344-20.552 0-2.837-.53-5.549-1.488-8.048h-42.024c-.958 2.499-1.488 5.211-1.488 8.048z"/><path d="m25.874 49.157h72.75v-3.375h-15.09l-1.174-14.084s-6.998-5.332-20.111-5.332c-13.111 0-20.111 5.332-20.111 5.332l-1.172 14.084h-14.96-.131v3.375z"/></g></svg>