<svg id="Layer_1" enable-background="new 0 0 135.629 248.812" height="512" viewBox="0 0 135.629 248.812" width="512" xmlns="http://www.w3.org/2000/svg"><g><path d="m131.386 226.928-35.951-31.638 7.737-30.948c-2.084 1.449-4.479 2.518-7.189 3.19l-21.903 10.101-4.745 18.98c-1.134 4.536.359 9.326 3.869 12.415l41.667 36.667c2.375 2.09 5.32 3.116 8.253 3.116 3.467 0 6.918-1.435 9.389-4.242 4.56-5.182 4.056-13.081-1.127-17.641z"/><path d="m109.529 147.834c2.586-22.215 1.123-35.346-5.682-55.52-5.035-14.642-17.41-19.279-25.947-17.15-4.695 1.17-7.94 5.304-9.435 10.441l13.277-2.219c.56-.093 1.125-.139 1.685-.139 5.003 0 9.232 3.582 10.057 8.519.449 2.687-.175 5.388-1.758 7.605s-3.935 3.687-6.622 4.136l-15.236 2.546c2.459 12.145 5.325 27.101 4.281 40.714l-39.089 18.026c-5.361 2.473-8.262 8.359-6.956 14.117l13.5 59.5c1.316 5.802 6.471 9.737 12.179 9.737.916 0 1.847-.102 2.777-.313 6.732-1.527 10.952-8.224 9.425-14.956l-11.26-49.624 40.267-18.569c6.468-1.52 12.38-5.753 14.537-16.851z"/><path d="m63.1 88.732-14.294 2.389-17.958-33.6c-2.084-3.897-6.931-5.367-10.826-3.285-3.897 2.083-5.367 6.93-3.285 10.826l20.666 38.666c1.407 2.633 4.139 4.229 7.053 4.229.438 0 .88-.035 1.321-.109l16.891-2.822c1.788-6.72.905-13.608.432-16.294z"/><path d="m84.742 101.338c4.358-.729 7.301-4.852 6.572-9.209-.728-4.357-4.844-7.294-9.209-6.572l-16.83 2.812c.495 2.76 1.351 9.413-.241 16.262z"/><path d="m61.715 68.975c11.034 5.715 24.612 1.404 30.327-9.631 5.715-11.033 1.403-24.612-9.631-30.327-5.477-2.837-11.579-3.201-17.036-1.501-.352-.191-.698-.385-1.059-.571-10.544-5.461-20.568-7.039-22.389-3.524-.57 1.101-.266 2.571.742 4.24 2.211 3.656 7.814 8.262 15.054 12.012 9.595 4.969 18.737 6.709 21.681 4.338-1.551 3.55-11.513 3.474-22.566-.234-2.112-.708-4.113-1.499-5.962-2.34-3.74 10.441.717 22.296 10.839 27.538z"/><circle cx="9.125" cy="9.125" r="9.125"/></g></svg>