<svg id="Layer_1" enable-background="new 0 0 259.942 218.684" height="512" viewBox="0 0 259.942 218.684" width="512" xmlns="http://www.w3.org/2000/svg"><g><path d="m183.799 85.578c4.417-.086 7.928-3.737 7.842-8.155-.085-4.363-3.65-7.843-7.996-7.843-.053 0-.106.001-.16.002-24.803.486-45.587 6.875-60.858 13.676 2.254 6.706 7.16 12.54 8.327 13.865 13.504-5.795 31.556-11.128 52.845-11.545z"/><path d="m39.696 123.13c-11.335-9.974-19.34-25.708-23.87-47.016-.919-4.322-5.166-7.081-9.489-6.162-4.322.919-7.08 5.167-6.162 9.488 6.285 29.565 18.414 46.938 30.733 57.14 4.854-4.74 7.903-11.358 8.788-13.45z"/><path d="m246.401 154.241c-.793.081-79.344 7.786-130.858-39.203-1.658-2.221-3.264-4.634-4.808-7.228 4.183-2.701 10.304-6.27 18.105-9.765-1.754-2.058-6.037-7.498-8.228-13.866-16.231 7.501-25.735 15.201-26.479 15.815-.734.606-1.324 1.32-1.783 2.094-1.552 1.911-3.289 4.059-5.14 6.352l11.695 10.968-15.235 1.015-1.283-6.002c-2.836 3.521-5.77 7.168-8.601 10.683l7.052-.765 3.808 14.786-15.399-8.39c-1.228 1.522-2.405 2.978-3.514 4.348-3.68-.511-7.863-1.497-12.209-3.299-4.354-1.806-8.375-4.204-12.068-7.172-1.177 2.68-4.161 8.729-8.817 13.357 5.061 3.919 10.11 6.668 14.755 8.595 9.366 3.885 18.152 4.921 24.572 4.996 8.901 8.603 61.011 54.645 168.023 67.044.479.055.954.082 1.426.082 6.134 0 11.43-4.6 12.153-10.841.778-6.721-4.038-12.8-10.759-13.579-37.992-4.402-68.262-13.394-90.955-22.635.428-2.008.857-4.016 1.285-6.024 31.012 11.567 61.199 13.701 79.189 13.701 9.601 0 15.73-.605 16.654-.703 6.728-.713 11.604-6.745 10.891-13.473-.712-6.727-6.733-11.61-13.472-10.891z"/><path d="m47.902 115.179c10.422 6.77 24.356 3.809 31.125-6.612 6.21-9.559 4.228-22.068-4.184-29.298-1.192 1.645-2.541 3.321-4.027 4.98-7.777 8.685-16.4 13.674-19.503 11.354 3.731.607 10.82-5.423 16.706-14.484 4.442-6.838 7.037-13.611 7.153-17.882.053-1.949-.41-3.377-1.449-4.053-3.32-2.157-11.255 4.168-17.724 14.126-.221.341-.427.68-.639 1.02-5.584 1.219-10.71 4.55-14.07 9.723-6.769 10.421-3.808 24.357 6.612 31.126z"/><circle cx="66.648" cy="9.125" r="9.125"/></g></svg>