<svg id="Layer_1" enable-background="new 0 0 113.485 116.805" height="512" viewBox="0 0 113.485 116.805" width="512" xmlns="http://www.w3.org/2000/svg"><g><path d="m41.413 58.887h8.618v17.753h-8.618z" transform="matrix(.707 -.707 .707 .707 -34.525 52.178)"/><path d="m113.461 12.578s.639-2.731-4.591-7.962c-5.23-5.23-7.962-4.591-7.962-4.591l-42.468 42.467 12.553 12.553z"/><path d="m35.105 72.801-34.114 34.114 5.579 5.579 34.114-34.114 4.27-.729-9.12-9.119z"/><path d="m64.534 77.087 12.553-12.553-64.509-64.509s-2.731-.639-7.962 4.591c-5.23 5.231-4.591 7.962-4.591 7.962z"/><path d="m77.651 68.532-9.119 9.119 4.269.729 34.114 34.114 5.579-5.579-34.114-34.114z"/><circle cx="56.743" cy="107.68" r="9.125"/></g></svg>