<svg id="Layer_1" enable-background="new 0 0 126.965 247.522" height="512" viewBox="0 0 126.965 247.522" width="512" xmlns="http://www.w3.org/2000/svg"><g><path d="m72.083 235.159c0 6.83 5.537 12.363 12.363 12.363 6.828 0 12.365-5.533 12.365-12.363v-66.72c-6.163.798-15.459 1.78-24.729 1.926v64.794z"/><path d="m123.214 148.622c-.037-2.053-.092-4.059-.157-6.042-4.54 2.062-11.372 2.267-15.941 2.121.039 1.377.074 2.773.1 4.207.078 4.369 3.645 7.857 7.996 7.857.049 0 .098 0 .146-.001 4.417-.079 7.935-3.724 7.856-8.142z"/><path d="m40.729 142.803c0-1.659.272-3.255.761-4.753l-11.588-3.603c-1.014 16.301-1.415 28.938-1.415 28.938s2.833.345 7.221.801c1.506.156 3.198.326 5.02.499v-21.882z"/><path d="m126.765 135.677c.066-.098.14-.191.2-.292-1.585-36.729-12.543-56.951-22.165-66.584-.935-1.021-1.901-1.96-2.906-2.793-5.232-4.333-10.096-4.991-12.689-4.964-.041-.001-.081-.006-.122-.006h-5.523c.805 2.539 1.259 5.482 1.259 8.824 0 7.22-4.657 14.741-8.792 19.998l-2.236-16.472c-1.295.486-2.658.74-4.021.74h-.006-.002c-1.365.001-2.729-.253-4.027-.739l-2.235 16.47c-4.134-5.256-8.791-12.777-8.791-19.996 0-3.342.453-6.284 1.259-8.824h-5.522c-.395 0-.78.039-1.159.096-10.455.652-21.308 8.398-32.287 23.086-4.152 5.555-7.557 11.074-9.866 15.084-2.025 3.517-3.206 5.875-3.307 6.077-.023.046-.04.094-.062.141-.066.138-.127.279-.185.423-.039.096-.079.193-.115.29-.012.03-.029.06-.041.09-.966 2.401-1.682 4.438-2.202 6.165-2.809 9.329.098 9.627.098 9.627l1.708.531 39.831 12.386c1.45-2.459 3.555-4.484 6.086-5.82l1.361-22.429 8.12 1.75c2.716.585 5.041 2.192 6.547 4.526s2.014 5.115 1.429 7.831c-.699 3.245-2.91 5.88-5.786 7.23 6.27 1.936 10.839 7.784 10.839 14.681v23.571c14.893-.175 30.043-2.569 32.305-2.94.19-.031.301-.05.301-.05l-1.443-18.967-.307-4.033c.002 0 19.751 2.262 24.454-4.708z"/><path d="m56.246 126.702c3.688 0 7.004-2.565 7.813-6.316.931-4.319-1.816-8.575-6.135-9.506l-4.767-1.027-.862 16.181 2.259.487c.567.123 1.133.181 1.692.181z"/><path d="m75.465 68.709-1.9-7.5h-3.799-3.801l-1.9 7.5.292.46c1.565 1.303 3.48 1.956 5.408 1.958 1.928-.002 3.846-.656 5.412-1.962z"/><path d="m78.92 53.392c7.862-3.508 13.344-11.387 13.344-20.552 0-2.837-.53-5.549-1.488-8.048h-42.023c-.958 2.5-1.488 5.211-1.488 8.048 0 9.166 5.483 17.045 13.346 20.553 2.797 1.248 5.893 1.947 9.154 1.947 3.261-.001 6.357-.7 9.155-1.948z"/><path d="m106.014 22.791v-3.375h-15.089l-1.175-14.084s-6.998-5.332-20.111-5.332c-13.111 0-20.111 5.332-20.111 5.332l-1.173 14.084h-15.091v3.375z"/><path d="m68.458 142.802c0-6.83-5.537-12.363-12.365-12.363-6.826 0-12.363 5.533-12.363 12.363v52.166c0 6.83 5.537 12.363 12.363 12.363 6.828 0 12.365-5.533 12.365-12.363z"/></g></svg>