<svg id="Layer_1" enable-background="new 0 0 176.174 247.522" height="512" viewBox="0 0 176.174 247.522" width="512" xmlns="http://www.w3.org/2000/svg"><g><path d="m18.034 62.303h-15.034c-1.657 0-3 1.343-3 3s15.453 13 18.034 13h5.446c-2.597-4.443-5.004-10.104-5.185-16z"/><path d="m91.928 235.159c0 6.83 5.537 12.363 12.363 12.363 6.828 0 12.365-5.533 12.365-12.363v-65.394c-9.268-.142-18.477-1.093-24.729-1.894v67.288z"/><path d="m121.291 235.159c0 6.83 5.537 12.363 12.363 12.363 6.828 0 12.365-5.533 12.365-12.363v-67.289c-6.251.801-15.461 1.752-24.729 1.894v65.395z"/><path d="m156.306 144.098c.047 1.57.089 3.164.118 4.809.078 4.369 3.645 7.857 7.996 7.857.049 0 .098 0 .146-.001 4.418-.079 7.935-3.725 7.856-8.142-.039-2.172-.098-4.294-.168-6.387-3.473 1.261-8.024 1.903-13.648 1.903-.816 0-1.574-.016-2.3-.039z"/><path d="m146.924 63.302-13.715-.657c.523 2.155.819 4.555.819 7.217 0 7.22-4.658 14.741-8.792 19.998l-2.236-16.472c-1.295.486-2.658.74-4.021.74h-.006-.002c-1.365.001-2.729-.253-4.027-.739l-2.235 16.47c-4.134-5.256-8.791-12.777-8.791-19.996 0-3.226.418-6.085 1.171-8.564l-5.434-.26-77.956-.401c-.623 12.187 10.835 24.332 10.835 24.332s44.125-4.203 45.5-.25c2 5.75 4.866 18.23 6.2 37.23 1.333 19 .44 41.435.44 41.435s17.632 3 34.299 3 34.299-3 34.299-3l-1.75-23s20.319 2.333 24.652-5c-2-46.333-18.917-66.417-29.25-72.083z"/><path d="m118.974 61.209h-3.801l-1.9 7.5.292.46c1.565 1.303 3.48 1.956 5.408 1.958 1.928-.002 3.846-.656 5.412-1.962l.289-.456-1.9-7.5z"/><path d="m128.129 53.392c7.862-3.508 13.344-11.387 13.344-20.552 0-2.837-.53-5.549-1.488-8.048h-42.024c-.958 2.5-1.488 5.211-1.488 8.048 0 9.166 5.484 17.045 13.346 20.553 2.797 1.248 5.893 1.947 9.154 1.947 3.262-.001 6.358-.7 9.156-1.948z"/><path d="m155.223 22.791v-3.375h-15.089l-1.174-14.084s-6.998-5.332-20.111-5.332c-13.111 0-20.111 5.332-20.111 5.332l-1.172 14.084h-15.093v3.375z"/></g></svg>