<svg id="Layer_1" height="512" viewBox="0 0 228.4341 271.5201" width="512" xmlns="http://www.w3.org/2000/svg"><g><path d="m148.5914 111.602c-.8086.1982-1.6357.2979-2.4619.2979-1.3467 0-2.6621-.2588-3.9092-.7705l-8.6375-3.5441-12.6611 36.3593-33.21 47.7816c-.2544.3662-.4786.7499-.6907 1.1395l1.0295-12.0526c.1494-1.7417-.3926-3.4409-1.5244-4.7852-1.1328-1.3438-2.7148-2.1655-4.4561-2.3145-3.6006-.3027-6.791 2.374-7.0996 5.9819l-6.6709 78.1006c-.1494 1.7412.3926 3.4404 1.5244 4.7847 1.1328 1.3438 2.7148 2.1655 4.4561 2.3145l.1289-1.4944v-.0002.0002l-.1279 1.4944c.1895.0161.3779.0239.5654.0239 1.541 0 3.0205-.5396 4.2188-1.5493.1215-.1024.2336-.2123.3464-.3218 1.4431 4.4344 5.3574 7.8477 10.2932 8.3951.459.0508.915.0757 1.3662.0757 6.1602 0 11.4648-4.6353 12.1602-10.9004l.9961-8.9816-25.041-2.2859-.7949 9.3071c-.168 1.958-1.8857 3.4209-3.8555 3.248-.9434-.0806-1.8018-.5273-2.417-1.2583-.6162-.7314-.9111-1.6528-.8311-2.5962l6.6709-78.1006c.1592-1.856 1.7197-3.2612 3.5498-3.2612.1006 0 .2031.0044.3057.0132.9434.0806 1.8018.5273 2.417 1.2583.6162.7314.9111 1.6533.8311 2.5967l-2.6265 30.7493 26.0627 1.8187 1.1057-9.9689 28.5157-41.0297 4.2062 1.0952 30.2928 58.9649 23.3563-11.4952-14.707-27.022c-.4521-.8311-.5527-1.7939-.2822-2.7109.2705-.9165.877-1.6704 1.708-2.123.54-.2935 1.123-.4331 1.6982-.4331 1.2646 0 2.4912.6733 3.1367 1.8599l37.4727 68.8481c.9395 1.7266.2988 3.895-1.4268 4.835-1.7285.938-3.8965.2988-4.835-1.4272l-4.5697-8.3962-24.1395 11.9564 4.5139 8.7865c2.1719 4.2271 6.46 6.6548 10.9062 6.6548 1.8838 0 3.7969-.436 5.5879-1.3564 5.5286-2.8401 7.9678-9.302 5.9323-15.0004 1.2604 1.4202 3.0585 2.2153 4.9105 2.2153 1.0596 0 2.1328-.2568 3.127-.7979 3.1787-1.73 4.3584-5.7241 2.6279-8.9038l-37.4727-68.8481c-1.7285-3.1787-5.7217-4.3589-8.9033-2.6274-1.3772.749-2.4154 1.9457-2.9749 3.4006l-10.073-19.6069 24.6404-59.5078c-.6246.2989-1.2881.5397-1.9863.7116z"/><path d="m146.9302 90.7954 24.3523-5.9929.6844 2.2004-25.2155 6.2055-51.915-21.3027c-4.0889-1.6748-8.7607.2764-10.4385 4.3643-1.6768 4.0879.2773 8.7607 4.3643 10.4385l54.3301 22.293c.9697.3975 2.002.5986 3.0371.5986.6406 0 1.2822-.0771 1.9121-.2314l42.2754-10.4033c4.2351-1.0421 6.8376-5.2792 5.8883-9.5158-.0123-.055-.0183-.1099-.0319-.1649-.1987-.8068-.5134-1.5541-.9214-2.2294-.8542-1.5388-2.2327-2.7972-4.0071-3.4715l-36.1151-13.7238c-1.7849-.6783-3.6626-.6475-5.3306-.0541-1.3099.282-2.5679.8916-3.6392 1.848l-14.443 12.8991z"/><path d="m200.242 51.8165c-.0018.4874-.0305.972-.0701 1.4547l3.8196.552c.0602-.6568.0978-1.3202.1003-1.9922.0085-2.224-.3109-4.3718-.9041-6.4031l-3.9336.3472c.6551 1.939.9957 3.9621.9879 6.0414z"/><path d="m182.8524 55.3472c-.0596.2843-.2593 1.1755-.6143 2.3314l12.0493 4.3506c1.6154-1.9882 2.728-4.3238 3.2676-6.8124l-14.4148-2.0831z"/><path d="m183.5184 50.2266-.0814.6262 14.4501 2.0882c.0273-.3766.0529-.7535.0542-1.1333.0085-2.014-.3635-3.9644-1.0627-5.8229l-9.8455.8688c-1.8331.1616-3.2784 1.5488-3.5147 3.373z"/><path d="m196.5638 62.8511 3.7589 1.3572c1.6097-2.4144 2.7638-5.1572 3.3429-8.1085l-3.8286-.5533c-.5489 2.6393-1.6602 5.1335-3.2732 7.3046z"/><path d="m177.0545 65.8633c-1.2314.6616-2.5928.7324-3.9297.2056-2.9155-1.1501-6.3425-.5515-8.7385.1666 4.1085 4.8732 10.2461 7.9824 17.1191 8.0089 6.9846.0269 13.2373-3.1313 17.3832-8.1086l-17.4154-6.288c-.9346 2.3396-2.3694 4.9153-4.4187 6.0155z"/><path d="m204.8301 37.6001c-3.6528-10.3654-13.531-17.5834-24.9592-17.5834-.4277 0-.8564.0103-1.2871.0308-12.457.5884-22.8652 9.9648-24.749 22.2954-1.2676 8.2959 1.4521 16.6919 7.2891 22.6201 2.0605-.8853 7.8809-2.9912 12.8447-1.0337.7188.2832 1.3525.2539 1.9971-.0918 2.5234-1.353 4.1914-6.8677 4.6211-8.8784l.6504-5.0293c.377-2.9023 2.6777-5.1099 5.5928-5.3672l13.4995-1.1913c2.7942-.1478 5.6619-.4092 8.054-.7487 3.3523-.4758 5.7682-1.1047 5.7241-1.7889-.0973-1.5073-2.8392-2.647-6.8003-3.0707-.7815-.0837-1.6118-.1378-2.4772-.1629zm-10.9426-6.3847c1.2046-.7645 3.1206.0965 4.2797 1.9229s1.1219 3.9266-.0828 4.6911c-1.2046.7645-3.1207-.0964-4.2797-1.9229-1.1591-1.8264-1.122-3.9267.0828-4.6911z"/><path d="m69.3699 72.8136 11.5432-13.4878-69.3122-59.3184s-2.7728-.4258-7.5825 5.1942c-4.8096 5.6199-3.9606 8.2936-3.9606 8.2936z"/><path d="m86.4151 70.5253-3.5725-3.0574-1.0571-4.2-8.386 9.7988 4.313.3958 4.0728 3.4856c.123-.5212.2754-1.0403.4849-1.5511.8523-2.0768 2.3226-3.7547 4.1449-4.8717z"/><path d="m89.6712 89.5676 19.6079 25.055c1.3633 1.7422 3.3867 2.8418 5.5898 3.0381.2373.0215.4736.0317.71.0317 1.958 0 3.8574-.7188 5.3291-2.0332l10.1843-9.0958z"/><path d="m211.3 238.8486-12.4537-22.8819-23.4849 11.5584 11.9272 23.2163z"/><path d="m81.9251 217.2858-2.228 26.0861 25.1919 2.2997 2.9477-26.5776z"/></g></svg>