<svg id="Layer_1" enable-background="new 0 0 232.766 231.128" height="512" viewBox="0 0 232.766 231.128" width="512" xmlns="http://www.w3.org/2000/svg"><g><path d="m52.127 138.813-1.459 17.497c.994.105 1.948.589 2.619 1.431l14.255 17.894 3.299-1.178c2.849-1.017 6.012.482 7.029 3.331.987 2.767-.402 5.823-3.092 6.929l.265.333c.391.491.626 1.05.745 1.626 3.661-1.609 5.518-5.805 4.153-9.629-.912-2.555-3.045-4.326-5.508-4.903l1.197-14.356-22.503-18.08c-.337-.27-.669-.573-1-.895z"/><path d="m82.636 127.5c.647-6.747 2.372-13.663 4.53-20.35-12.93-16.552-14.903-33.341-15.02-34.447-.286-2.709.501-5.368 2.215-7.485 1.714-2.118 4.15-3.441 6.86-3.727.362-.039.727-.059 1.087-.059 5.201 0 9.552 3.907 10.12 9.088.06.51.754 5.835 3.936 12.793.423-1.016.837-2.013 1.23-2.973 4.746-9.204 3.376-21.618-4.583-25.364-2.052-.965-4.444-1.535-6.994-1.626-.042-.007-.083-.019-.125-.025-.931-.14-23.048-3.315-41.693 10.782-12.991 9.822-20.89 25.251-23.475 45.857-.551 4.384 2.558 8.384 6.941 8.934.339.043.674.063 1.006.063 3.975 0 7.42-2.959 7.928-7.005 2.018-16.081 7.774-27.851 17.11-34.981 2.348-1.793 4.801-3.192 7.248-4.287-8.17 15.443-11.501 27.606-13.081 47.437-.026 7.708 2.281 12.625 5.669 15.844.445.495.923.969 1.459 1.399l37.923 30.47c.026-.005.05-.017.077-.021l21.018-3.656-.865-4.975c-.518-2.98 1.496-5.843 4.476-6.361s5.843 1.496 6.361 4.476l.865 4.975 2.167-.377-.865-4.975c-.728-4.183-4.723-6.994-8.906-6.267-.267.047-.529.107-.784.18-1.084.307-2.052.845-2.871 1.542z"/><path d="m110.224 32.876h-7.06l7.863 9.846 1.418-1.013z"/><path d="m114.361 41.126h15.22v2h-15.679l-1.498 1.069 8.372 7.948-1.377 1.451-9.251-8.783c-.018-.017-.024-.042-.04-.06-.016-.017-.038-.023-.052-.042l-9.487-11.88h-13.025c-.651 11.048 6.931 21.159 18.092 23.368 5.1 1.009 10.135.204 14.447-1.961l4.565 4.291 7.709-3.993 1.564-13.408h-2.539c.278-.854.515-1.73.693-2.633.378-1.908.502-3.808.396-5.664h-20.197zm17.313 2-1.181 10.121-5.508 2.853-3.074-2.889c3.787-2.364 6.866-5.842 8.713-10.084h1.05z"/><path d="m145.338 27.317c0-1.829-5.093-3.313-11.375-3.313-.144 0-.283.005-.425.006-1.808-13.716-9.46-24.01-23.45-24.01-16.167 0-23.878 13.741-23.878 30.63h47.752c6.283 0 11.376-1.483 11.376-3.313z"/><path d="m129.65 183.407h2.2v12.6h-2.2z" transform="matrix(.985 -.171 .171 .985 -30.578 25.215)"/><path d="m134.493 217.646c.518 2.98-10.319 4.865-10.837 1.885l-2.422-13.924-17.952 3.123 1.874 11.85c.974 6.157 6.288 10.549 12.331 10.549.649 0 1.308-.051 1.969-.155 4.574-.724 8.163-3.847 9.712-7.881.221-.03.444-.061.672-.101 1.009-.176 1.916-.419 2.723-.714 2.934-1.074 4.468-2.879 4.097-5.008l-2.422-13.925-2.167.377z"/><path d="m126.708 169.661h2.2v6.267h-2.2z" transform="matrix(.985 -.171 .171 .985 -27.723 24.461)"/><path d="m116.424 177.955-1.074-6.174-17.432 3.033.979 6.19z"/><path d="m119.909 197.987-2.16-12.413-17.644 3.07 1.969 12.446z"/><path d="m92.028 171.913c.157.903 1.025 1.513 1.928 1.356l34.4-5.984c.903-.157 1.513-1.025 1.356-1.928s-1.025-1.513-1.928-1.356l-34.4 5.984c-.903.158-1.513 1.025-1.356 1.928z"/><path d="m95.783 183.779c-.903.157-1.513 1.025-1.356 1.928s1.025 1.513 1.928 1.356l34.4-5.984c.903-.157 1.513-1.025 1.356-1.928s-1.025-1.513-1.928-1.356z"/><path d="m99.268 203.811c-.903.157-1.513 1.025-1.356 1.928s1.025 1.513 1.928 1.356l34.4-5.984c.903-.157 1.513-1.025 1.356-1.928s-1.025-1.513-1.928-1.356z"/><path d="m56.597 191.221.74 2.071 11.2-3.997-1.448-1.819z"/><path d="m37.451 195.874h12.6v2.2h-12.6z" transform="matrix(.942 -.336 .336 .942 -63.667 26.169)"/><path d="m16.853 205.406c-2.849 1.017-6.547-9.343-3.698-10.36l13.311-4.751-6.133-17.184-11.687 3.79c-6.567 2.13-10.164 9.18-8.034 15.747 1.506 4.644 5.473 7.8 9.99 8.498.062.192.122.384.192.581 1.597 4.474 4.202 6.676 6.797 5.75l13.311-4.751-.739-2.072z"/><path d="m52.9 180.861 6.944-2.479-11.45-14.371-1.352.438z"/><path d="m33.75 187.695 11.866-4.235-5.933-16.624-11.99 3.889z"/><path d="m73.323 186.421-21.757-27.309c-.571-.717-1.625-.836-2.342-.265s-.836 1.625-.265 2.342l21.757 27.309c.571.717 1.625.836 2.342.265.717-.571.836-1.625.265-2.342z"/><path d="m43.657 161.508c-.308-.863-1.267-1.318-2.13-1.009-.863.308-1.318 1.267-1.009 2.13l11.737 32.885c.308.863 1.267 1.318 2.13 1.009.863-.308 1.318-1.267 1.009-2.13z"/><path d="m24.507 168.344c-.308-.863-1.267-1.318-2.13-1.009-.863.308-1.318 1.267-1.009 2.13l11.737 32.885c.308.863 1.267 1.318 2.13 1.009.863-.308 1.318-1.267 1.009-2.13z"/><path d="m232.599 66.022s1.197-2.537-2.821-8.747c-4.019-6.21-6.823-6.157-6.823-6.157l-76.592 49.564 9.645 14.904z"/><path d="m102.863 134.706 4.287 6.624 14.186-9.18c-3.022-1.195-5.856-2.497-8.52-3.884z"/><path d="m136.422 119.164c.403.868.671 1.774.819 2.693l10.413-6.739 4.327.182-7.007-10.828-1.607 4.022-10.288 6.657c1.43 1.015 2.584 2.38 3.343 4.013z"/><path d="m124.421 130.972c.907.332 1.835.489 2.748.489 3.263 0 6.328-2.011 7.514-5.253 1.519-4.149-.614-8.744-4.764-10.262-16.925-6.192-26.683-16.433-32.289-25.608-5.91 3.438-10.524 9.247-11.9 11.095 7.323 10.935 19.266 22.433 38.691 29.539z"/><path d="m96.519 88.44c-5.18-9.249-6.196-16.997-6.276-17.679-.48-4.376-4.422-7.552-8.79-7.082-4.395.463-7.581 4.4-7.118 8.794.098.928 1.548 13.271 10.121 26.993 1.877-2.439 6.332-7.695 12.063-11.026z"/></g></svg>