<svg id="Layer_1" enable-background="new 0 0 390.484 89.593" height="512" viewBox="0 0 390.484 89.593" width="512" xmlns="http://www.w3.org/2000/svg"><g><path d="m229.273 41.706 14.793 3.58-.471 1.943-15.239-3.688-1.707.688 5.105 7.899c1.747.58 3.541 1.137 5.362 1.68 2.885-1.508 5.458-3.646 7.492-6.332l1.021.247-2.836 7.684c.643.169 1.299.328 1.95.491l3.54-9.591-2.468-.597c.471-.764.907-1.56 1.293-2.395.816-1.766 1.383-3.583 1.717-5.411l-19.63-4.751z"/><path d="m227.273 41.821-.081-9.107-6.861-1.661 5.325 11.419z"/><path d="m224.311 44.297c-.009-.013-.008-.03-.016-.044-.016-.027-.037-.048-.05-.076l-6.426-13.779-12.659-3.064c-1.407 4.609-1.254 9.409.219 13.757 6.569 3.349 14.416 6.86 23.316 9.987z"/><path d="m250.793 36.115c6.106 1.478 11.405 1.235 11.835-.544.43-1.778-4.171-4.418-10.277-5.895-.14-.034-.276-.062-.415-.094 1.47-13.757-3.545-25.563-17.143-28.854-15.713-3.803-26.44 7.739-30.413 24.153z"/><path d="m168.495 28.896c1.946-2.429 4.849-3.821 7.965-3.821 2.302 0 4.562.792 6.362 2.231.118.093 4.514 3.522 12.319 8.152.191-1.638.174-3.241-.069-4.743-1.405-8.683-12.962-13.42-23.12-11.394-14.176 1.56-34.589 4.723-51.527.988-12.58-1.808-14.813 1.328-15.777 8.769-9.971-1.795-21.422-4.189-33.401-7.344l-6.076 17.171 4.761 1.685c2.852 1.009 4.359 4.168 3.35 7.02s-4.168 4.359-7.02 3.35l-4.761-1.685-.734 2.074 4.761 1.684c3.933 1.392 8.251-.62 9.744-4.487 33.141 7.859 59.906 10.112 61.727 10.258.233.019.463.022.693.028 12.757 1.113 23.602-.119 38.119-3.695 2.819-.712 5.307-1.712 7.481-2.923-8.065-4.901-12.697-8.562-13.217-8.979-4.387-3.517-5.096-9.95-1.58-14.339z"/><path d="m387.364 89.593s2.487-1.299 3.035-8.675c.548-7.377-1.719-9.029-1.719-9.029l-90.979-6.765-1.316 17.704z"/><path d="m273.285 71.059c-.239 1.862-.978 3.554-2.067 4.953l18.792 1.397 3.339 2.759.956-12.862-3.71 2.235-17.342-1.289c.136.919.153 1.861.032 2.807z"/><path d="m181.449 29.025c-3.447-2.754-8.477-2.198-11.237 1.247-2.763 3.448-2.207 8.482 1.24 11.246.706.566 9.094 7.187 23.426 14.725 1.532-7.405 4.927-12.412 6.711-14.628-12.68-6.733-19.986-12.467-20.14-12.59z"/><path d="m263.178 77.763c3.966 0 7.407-2.946 7.925-6.983.563-4.383-2.535-8.391-6.917-8.952-25.056-3.213-46.029-11.654-60.597-19.169-1.537 1.853-5.229 6.951-6.685 14.637 15.807 8.086 38.236 16.938 65.247 20.401.346.044.688.066 1.027.066z"/><path d="m8.52 30.528c-2.852-1.009.818-11.379 3.669-10.37l13.324 4.715 5.81-16.42c-4.501-1.88-8.93-3.888-13.233-6.039-6.17-3.087-13.682-.584-16.769 5.591-2.93 5.862-.817 12.917 4.686 16.26-1.402 4.269-.738 7.447 1.779 8.338l13.324 4.715.734-2.074z"/><path d="m49.79 43.554h2.2v6.267h-2.2z" transform="matrix(.334 -.943 .943 .334 -10.098 79.091)"/><path d="m33.607 34.661h2.2v12.6h-2.2z" transform="matrix(.334 -.943 .943 .334 -15.485 60.018)"/><path d="m51.973 34.235 5.908 2.09 5.889-16.644c-1.998-.571-4.006-1.166-6.017-1.781z"/><path d="m32.804 27.453 11.878 4.203 5.698-16.103c-3.97-1.318-7.937-2.726-11.869-4.228z"/><path d="m70.213 18.06c.306-.864-.151-1.821-1.015-2.127s-1.821.151-2.127 1.015l-11.648 32.917c-.306.864.151 1.821 1.015 2.127s1.821-.151 2.127-1.015z"/><path d="m57.015 13.39c.306-.864-.151-1.821-1.015-2.127s-1.821.151-2.127 1.015l-11.648 32.917c-.306.864.151 1.821 1.015 2.127s1.821-.151 2.127-1.015z"/><path d="m37.846 6.607c.306-.864-.151-1.821-1.015-2.127s-1.821.151-2.127 1.015l-11.647 32.917c-.306.864.151 1.821 1.015 2.127s1.821-.151 2.127-1.015z"/></g></svg>