<svg id="Layer_1" enable-background="new 0 0 226.986 247.522" height="512" viewBox="0 0 226.986 247.522" width="512" xmlns="http://www.w3.org/2000/svg"><g><path d="m86.447 235.159c0 6.83 5.537 12.363 12.363 12.363 6.828 0 12.365-5.533 12.365-12.363v-66.993c-10.471-.159-18.684-1.374-24.729-2.754v69.747z"/><path d="m115.811 235.159c0 6.83 5.537 12.363 12.363 12.363 6.828 0 12.365-5.533 12.365-12.363v-69.747c-6.045 1.38-14.257 2.596-24.729 2.754v66.993z"/><path d="m9.387 52.571c-4.353-.771-8.5 2.142-9.265 6.493-.766 4.352 2.142 8.5 6.493 9.265 2.95.519 5.878 1.006 8.775 1.465l-.254-16.248c-1.907-.312-3.824-.636-5.749-.975z"/><path d="m217.599 52.571c-1.925.339-3.843.663-5.75.975l-.254 16.248c2.898-.459 5.825-.946 8.776-1.465 4.352-.765 7.259-4.913 6.493-9.265-.765-4.351-4.915-7.266-9.265-6.493z"/><path d="m208.485 51.2s-48.073 7.285-81.438 9.151c.952 2.691 1.501 5.858 1.501 9.51 0 7.22-4.658 14.741-8.791 19.998l-2.236-16.472c-1.295.486-2.658.74-4.021.74h-.006-.002c-1.365.001-2.729-.253-4.027-.739l-2.235 16.47c-4.134-5.256-8.791-12.777-8.791-19.996 0-3.652.549-6.818 1.501-9.51-33.366-1.867-81.439-9.152-81.439-9.152l.5 32s46.167 1.583 54.833 1.583c8.667 0 1.333 73.333 1.333 73.333s12.324 6.667 38.324 6.667h.002c26 0 38.324-6.667 38.324-6.667s-7.333-73.333 1.333-73.333c8.667 0 54.833-1.583 54.833-1.583z"/><path d="m117.292 61.209h-7.6l-1.9 7.5.292.46c1.565 1.303 3.48 1.956 5.408 1.958 1.928-.002 3.846-.656 5.412-1.962l.289-.456z"/><path d="m122.648 53.392c7.862-3.508 13.344-11.387 13.344-20.552 0-2.837-.53-5.549-1.488-8.048h-42.023c-.958 2.5-1.488 5.211-1.488 8.048 0 9.166 5.484 17.045 13.346 20.553 2.797 1.248 5.893 1.947 9.154 1.947 3.261-.001 6.357-.7 9.155-1.948z"/><path d="m149.742 22.791v-3.375h-15.089l-1.174-14.084s-6.998-5.332-20.111-5.332c-13.111 0-20.111 5.332-20.111 5.332l-1.173 14.084h-15.092v3.375z"/></g></svg>